<svg width="269" height="235" viewBox="0 0 269 235" fill="none" xmlns="http://www.w3.org/2000/svg">
<path d="M159.923 95.6321L161.865 105.368C161.99 105.999 161.805 106.651 161.367 107.122L157.246 111.551M159.923 95.6321L155.765 94.798C155.059 94.6564 154.345 95.0056 154.024 95.6501V95.6501C153.711 96.2776 153.025 96.6272 152.334 96.5116L147.072 95.6321M159.923 95.6321L162.065 93.2155M153.498 124.094L154.496 115.085C154.543 114.658 154.727 114.258 155.019 113.943L157.246 111.551M153.498 124.094L155.781 127.039C156.545 128.023 158.012 128.077 158.847 127.153L167.419 117.65M153.498 124.094L151.406 127.871C151.046 128.52 151.076 129.316 151.483 129.937L163.879 148.834C164.093 149.16 164.207 149.541 164.207 149.931V151.542C164.207 152.179 164.51 152.779 165.024 153.155L178.128 162.759M167.419 117.65L162.065 114.428L157.246 111.551M167.419 117.65L171.819 121.082C172.094 121.296 172.42 121.435 172.765 121.484L179.735 122.483M178.128 162.759V185.593C178.128 185.764 178.106 185.935 178.063 186.101L175.517 195.805C175.473 195.97 175.451 196.141 175.451 196.312V204.733C175.451 205.03 175.385 205.323 175.258 205.591L170.29 216.054C170.163 216.322 170.097 216.615 170.097 216.912V234.814C170.097 235.106 170.033 235.394 169.91 235.658L166.535 242.911C166.412 243.175 166.348 243.463 166.348 243.754V260.141C166.348 260.376 166.39 260.609 166.471 260.83L169.802 269.898C169.99 270.41 170.38 270.823 170.88 271.041L182.412 276.07M178.128 162.759L180.27 161.148M182.412 276.07L185.194 277.266C185.651 277.462 186.16 277.127 186.16 276.629V276.629C186.16 276.303 186.388 276.021 186.707 275.952L189.238 275.408C190.935 275.044 191.394 272.838 189.983 271.827L182.412 266.404M182.412 276.07V266.404M182.412 266.404L189.061 249.475C189.26 248.968 189.244 248.402 189.016 247.908L186.639 242.742C186.342 242.097 186.41 241.343 186.816 240.761L193.296 231.476C193.531 231.14 193.656 230.741 193.656 230.332V228.664C193.656 227.56 194.552 226.664 195.656 226.664H197.011C198.115 226.664 199.011 225.769 199.011 224.664V221.364C199.011 220.392 199.71 219.561 200.667 219.394L210.198 217.732C210.897 217.61 211.479 217.127 211.727 216.462L212.662 213.963C212.836 213.497 212.83 212.983 212.646 212.521L209.72 205.184M182.412 266.404L175.908 264.54C175.286 264.362 174.788 263.892 174.573 263.281L172.057 256.133C171.836 255.504 171.943 254.806 172.342 254.271L174.517 251.363C174.776 251.017 174.916 250.597 174.916 250.165V228.018C174.916 227.832 174.941 227.648 174.992 227.47L180.206 209.167C180.249 209.018 180.274 208.865 180.281 208.71L180.797 197.322C180.803 197.193 180.821 197.065 180.851 196.94L186.16 175.111M209.72 205.184L216.479 208.347C217.243 208.705 218.148 208.545 218.743 207.948L223.106 203.573M209.72 205.184L211.326 193.906M223.106 203.573L232.873 190.683C233.137 190.335 233.279 189.911 233.279 189.475V182.378C233.279 181.557 233.781 180.82 234.544 180.518L250.072 174.383C250.627 174.164 251.056 173.708 251.24 173.14L257.855 152.727C257.891 152.613 257.938 152.503 257.995 152.397L261.556 145.764C261.624 145.638 261.705 145.52 261.798 145.411L267.425 138.826C267.839 138.342 267.998 137.69 267.852 137.07L266.174 129.916C266.028 129.295 265.594 128.78 265.006 128.531L232.227 114.662C231.866 114.509 231.557 114.254 231.34 113.927L225.248 104.761M223.106 203.573L211.326 193.906M225.248 104.761L220.964 101.539M225.248 104.761L223.536 109.052C223.27 109.72 222.667 110.193 221.955 110.292L218.019 110.841M220.964 101.539H211.326M220.964 101.539L218.019 110.841M211.326 101.539L204.365 94.558M211.326 101.539L210.153 103.892C209.879 104.441 209.873 105.085 210.135 105.64L212.932 111.551M179.735 122.483V113.551C179.735 112.446 180.63 111.551 181.735 111.551H186.16M179.735 122.483L178.466 126.3C178.255 126.935 177.741 127.422 177.096 127.599L173.386 128.613C172.679 128.807 172.134 129.372 171.967 130.086L170.465 136.486C170.25 137.402 170.704 138.345 171.554 138.749L180.27 142.89M186.16 111.551V102.88C186.16 102.069 185.67 101.338 184.919 101.03L175.076 96.9914C174.627 96.8075 174.261 96.4671 174.045 96.0334L172.575 93.0851C172.358 92.65 172.307 92.1507 172.432 91.6807L174.38 84.3231M186.16 111.551L190.673 113.755C191.485 114.152 192.463 113.954 193.058 113.273L194.995 111.052C195.488 110.487 195.623 109.693 195.345 108.997L195.192 108.612C194.572 107.057 196.023 105.473 197.626 105.956L197.864 106.027C198.57 106.24 199.336 106.046 199.856 105.524L202.223 103.15M174.38 84.3231V84.3231C174.878 84.0881 175.451 84.4513 175.451 85.0019V86.7061C175.451 87.5335 176.014 88.2549 176.817 88.4562V88.4562C177.311 88.5801 177.835 88.4892 178.258 88.206L180.088 86.9824C180.546 86.6763 181.11 86.5725 181.647 86.6956L198.129 90.4741C198.974 90.6678 199.848 90.2952 200.292 89.5514L200.34 89.4715C200.816 88.6758 201.707 88.5508 201.754 89.4769C201.8 90.3864 201.669 91.5053 201.9 92.0703C202.02 92.3657 202.341 92.5278 202.566 92.7538L204.365 94.558M174.38 84.3231L166.769 87.9155C166.492 88.046 166.249 88.2381 166.059 88.477L164.207 90.7989L162.065 93.2155M204.365 94.558L202.564 98.6217C202.346 99.1138 202.336 99.673 202.535 100.173L204.365 104.761L206.543 110.284C206.844 111.049 207.582 111.551 208.404 111.551H212.932M212.932 111.551L218.019 110.841M180.27 142.89L189.779 141.589C190.98 141.425 192.05 142.358 192.05 143.571V144.34C192.05 145.097 192.477 145.789 193.153 146.128L202.894 151.013C203.48 151.307 203.885 151.869 203.977 152.518L204.258 154.489C204.327 154.974 204.571 155.416 204.944 155.732L210.502 160.449C211.016 160.885 211.276 161.552 211.192 162.221L210.523 167.592M180.27 142.89L182.172 147.182C182.329 147.535 182.379 147.926 182.319 148.307L180.27 161.148M218.019 183.166V178.952C218.019 178.549 217.897 178.155 217.669 177.822L215.67 174.906C215.297 174.362 214.68 174.037 214.02 174.037H211.984C210.782 174.037 209.851 172.983 210 171.789L210.523 167.592M218.019 183.166L219.271 184.308C220.167 185.124 220.136 186.543 219.206 187.32L211.326 193.906M218.019 183.166L215.132 186.284C214.754 186.693 214.222 186.925 213.665 186.925H211.72C210.615 186.925 209.72 186.03 209.72 184.925V182.101C209.72 181.425 209.378 180.795 208.812 180.426L199.011 174.037M199.011 174.037L200.688 168.151C200.956 167.209 201.866 166.6 202.839 166.712L210.523 167.592M199.011 174.037H189.698C189.483 174.037 189.268 174.071 189.064 174.14L186.16 175.111M186.16 175.111L180.27 161.148M147.072 95.6321L140.492 91.3896C139.921 91.0214 139.576 90.3883 139.576 89.7087V88.1138M147.072 95.6321V92.41M139.576 88.1138H145.466M139.576 88.1138L134.222 83.8177M145.466 88.1138L147.072 92.41M145.466 88.1138L146.902 78.5101C147.008 77.8063 146.731 77.0996 146.176 76.6543L145.679 76.2558C144.933 75.6572 143.868 75.6706 143.137 76.2878L134.222 83.8177M147.072 92.41L154.361 90.8435C154.499 90.8139 154.64 90.7989 154.781 90.7989H159.023C159.595 90.7989 160.14 91.0441 160.52 91.4723L162.065 93.2155M134.222 83.8177L129.938 81.9381M125.654 80.0586L119.763 75.6271C119.416 75.3664 118.995 75.2254 118.561 75.2254H110.623C110.297 75.2254 109.976 75.1456 109.687 74.993L91.9147 65.5855C91.2599 65.2389 90.8504 64.5587 90.8504 63.8178V58.2501C90.8504 57.7688 90.6768 57.3036 90.3615 56.94L71.6854 35.3995C70.9073 34.502 69.4325 35.0523 69.4325 36.2402V36.2402C69.4325 36.4503 69.4841 36.6572 69.5827 36.8427L73.6256 44.4452C73.6857 44.5584 73.7567 44.6656 73.8374 44.7652L80.3232 52.7711C80.552 53.0536 80.6769 53.4061 80.6769 53.7696V53.7696C80.6769 54.6456 79.9667 55.3558 79.0907 55.3558H77.9825C77.323 55.3558 76.7058 55.0306 76.3329 54.4866L71.0388 46.7635L60.8653 30.1159M125.654 80.0586L126.546 72.4578C126.652 71.5567 127.351 70.8397 128.249 70.711L130.473 70.3922M125.654 80.0586L129.938 81.9381M60.8653 30.1159L88.701 32.7497C89.0565 32.7833 89.3966 32.9115 89.6858 33.121L108.52 46.7635M60.8653 30.1159L44.0749 6.96149C43.8504 6.65179 43.7193 6.28418 43.6974 5.90226L42.1247 -21.4377M108.52 46.7635L117.01 37.2468C117.399 36.811 117.959 36.5669 118.543 36.5786L143.233 37.0739C143.952 37.0883 144.607 37.4868 144.95 38.1179L150.397 48.1331C150.658 48.6129 151.16 48.9116 151.707 48.9116V48.9116C152.638 48.9116 153.342 48.0664 153.172 47.1502L151.016 35.4699C150.894 34.8094 151.112 34.1318 151.595 33.666L163.979 21.7431C164.13 21.5977 164.257 21.4295 164.356 21.2446L172.002 6.92905C172.157 6.63895 172.381 6.39154 172.655 6.20874L176.169 3.85904C176.724 3.48789 177.057 2.86419 177.057 2.19644V0.111133C177.057 -0.596681 177.432 -1.25178 178.041 -1.61144L185.69 -6.1238C185.998 -6.30543 186.349 -6.40123 186.706 -6.40123H193.656M108.52 46.7635L112.149 61.8403C112.227 62.1662 112.386 62.4671 112.611 62.7155L116.896 67.4428C117.35 67.9428 118.024 68.1806 118.691 68.075L126.967 66.7644C127.497 66.6804 127.972 66.3867 128.283 65.9493L132.553 59.9547C132.928 59.4278 133.535 59.1149 134.182 59.1149H134.748C136.088 59.1149 137.048 60.4051 136.665 61.688L134.222 69.8552M193.656 -6.40123L200.506 -13.2709C201.395 -14.163 201.248 -15.6454 200.201 -16.3456L194.882 -19.9019C193.417 -20.8816 193.844 -23.1403 195.565 -23.518L205.125 -25.6153C206.534 -25.9244 207.797 -24.6854 207.515 -23.2706L206.984 -20.6067C206.737 -19.3695 207.684 -18.2156 208.945 -18.2156H216.942C218.356 -18.2156 219.324 -19.6431 218.8 -20.9565L215.698 -28.7354C215.639 -28.8819 215.564 -29.021 215.472 -29.1498L193.1 -60.7672C192.504 -61.6086 191.367 -61.8597 190.473 -61.3472L185.685 -58.6035C184.998 -58.2093 184.142 -58.2586 183.504 -58.7291L168.646 -69.6858C167.529 -70.5095 165.933 -69.9731 165.541 -68.6419L156.035 -36.4093C155.611 -34.9705 153.812 -34.4936 152.731 -35.533L142.518 -45.3494C142.343 -45.5174 142.139 -45.6522 141.916 -45.7473L123.649 -53.5335C122.322 -54.0991 122.012 -55.8407 123.062 -56.8295L146.607 -78.9974C146.91 -79.2824 147.116 -79.6547 147.197 -80.0624L150.331 -95.778C150.582 -97.0354 149.601 -98.2006 148.32 -98.1685L86.7292 -96.6242C86.6211 -96.6215 86.513 -96.6276 86.4058 -96.6423L43.731 -102.527H3.43066C2.32609 -102.527 1.43066 -101.632 1.43066 -100.527V-63.6036C1.43066 -62.7866 1.92768 -62.0517 2.686 -61.7474L19.6271 -54.9511C19.9824 -54.8086 20.2894 -54.567 20.5115 -54.2552L28.203 -43.4554L42.1247 -21.4377M193.656 -6.40123L184.348 -13.87C183.551 -14.5091 182.401 -14.4454 181.68 -13.7222L177.644 -9.67418C177.268 -9.29784 176.759 -9.08632 176.227 -9.08632H166.934C166.552 -9.08632 166.177 -8.97664 165.855 -8.77028L149.595 1.64855C148.394 2.41798 146.797 1.71927 146.547 0.315172L144.602 -10.6094C144.474 -11.3263 143.967 -11.9172 143.278 -12.152L116.33 -21.3309C116.122 -21.4016 115.904 -21.4377 115.685 -21.4377H42.1247M134.222 69.8552L133.151 75.2254M134.222 69.8552L130.473 70.3922M129.938 81.9381L133.151 75.2254M133.151 75.2254L130.473 70.3922M175.987 70.3922L179.891 68.9938C181.409 68.4499 181.692 66.4245 180.381 65.4851L180.257 65.3962C179.917 65.1529 179.51 65.0221 179.092 65.0221H175.719M175.987 70.3922L172.274 69.5329C171.451 69.3426 171.441 68.1757 172.259 67.9704V67.9704C172.782 67.8393 173.03 67.2408 172.754 66.7783L172.614 66.5445C172.213 65.874 172.696 65.0221 173.477 65.0221H175.719M175.987 70.3922L175.719 65.0221M157.246 59.1149L150.211 55.8221C149.59 55.5317 148.864 55.5791 148.287 55.9477V55.9477C146.676 56.9755 147.285 59.4603 149.188 59.6263L154.971 60.1306C155.405 60.1685 155.814 60.3467 156.137 60.6384L160.17 64.2783C160.682 64.7409 161.397 64.9065 162.061 64.7163L162.294 64.6497C164.182 64.1084 164.24 61.4531 162.377 60.8302L157.246 59.1149ZM162.078 71.4663H161.344C160.797 71.4663 160.291 71.1726 160.02 70.697V70.697C159.366 69.5482 160.385 68.1681 161.675 68.4557L162.392 68.6154C162.857 68.7191 163.241 69.0462 163.418 69.4891V69.4891C163.796 70.4366 163.098 71.4663 162.078 71.4663Z" stroke="#CCCCCC" stroke-opacity="0.4" stroke-width="2"/>
</svg>
